<?xml version="1.0" encoding="UTF-8" standalone="no"?><!-- Generator: Gravit.io --><svg xmlns="http://www.w3.org/2000/svg" xmlns:xlink="http://www.w3.org/1999/xlink" style="isolation:isolate" viewBox="0 0 204.094 362.835" width="204.094pt" height="362.835pt"><defs><clipPath id="_clipPath_pJh9rex6gvpHkJQ52kcv0JKMAIjS1C0E"><rect width="204.094" height="362.835"/></clipPath></defs><g clip-path="url(#_clipPath_pJh9rex6gvpHkJQ52kcv0JKMAIjS1C0E)"><path d=" M 0.068 362.713 L 204.025 362.713 L 204.025 0.124 L 0.068 0.124 L 0.068 362.713 Z " fill="rgb(11,55,90)"/><clipPath id="_clipPath_7vUhrS4WpTBg2T6UUNalsSv5LQBoxcKy"><path d=" M 0.068 362.713 L 204.025 362.713 L 204.025 0.124 L 0.068 0.124 L 0.068 362.713 Z " fill="rgb(11,55,90)"/></clipPath><g clip-path="url(#_clipPath_7vUhrS4WpTBg2T6UUNalsSv5LQBoxcKy)"><path d=" M 47.4 153.535 C 46.788 157.241 45.442 158.891 43.875 159.354 C 43.65 159.475 43.404 159.52 43.127 159.484 C 42.17 159.551 41.164 159.259 40.211 158.765 C 37.458 157.34 32.302 154.906 32.056 140.228 C 32.053 140.13 32.039 140.022 32.039 139.928 C 32.039 139.709 32.045 139.502 32.046 139.288 C 32.046 139.235 32.045 139.185 32.045 139.132 C 32.045 139.116 32.048 139.101 32.048 139.087 C 32.24 124.191 37.473 121.932 40.244 120.504 C 43.067 119.048 46.368 119.277 47.424 125.747 C 48.128 130.055 48.449 134.678 48.41 139.123 C 48.498 143.884 48.166 148.894 47.4 153.535 Z  M 16.56 117.69 C 16.552 117.712 16.547 117.723 16.547 117.723 C 16.214 117.721 15.905 117.712 15.58 117.707 C 15.254 117.712 14.944 117.721 14.611 117.723 C 14.611 117.723 14.607 117.712 14.599 117.69 C 0.23 117.399 -6.98 115.482 -7.119 112.322 C -7.265 109.02 -3.344 104.444 4.133 101.368 C 9.38 99.21 12.918 96.566 13.208 89.064 C 13.358 85.2 13.507 80.941 13.617 77.716 C 11.626 76.905 10.214 74.904 10.214 72.558 C 10.214 69.497 12.616 67.014 15.58 67.014 C 18.543 67.014 20.945 69.497 20.945 72.558 C 20.945 74.904 19.534 76.905 17.542 77.716 C 17.652 80.941 17.801 85.2 17.951 89.064 C 18.242 96.566 21.778 99.21 27.026 101.368 C 34.503 104.444 38.423 109.02 38.278 112.322 C 38.139 115.482 30.929 117.399 16.56 117.69 Z  M -0.737 140.136 C -0.737 140.151 -0.741 140.166 -0.741 140.181 C -0.933 155.077 -6.165 157.335 -8.936 158.764 C -11.76 160.22 -15.06 159.99 -16.116 153.52 C -16.82 149.213 -17.142 144.59 -17.102 140.144 C -17.19 135.385 -16.858 130.373 -16.092 125.732 C -15.481 122.026 -14.135 120.377 -12.567 119.913 C -12.342 119.792 -12.097 119.747 -11.819 119.783 C -10.862 119.717 -9.856 120.009 -8.903 120.502 C -6.15 121.928 -0.994 124.361 -0.749 139.039 C -0.745 139.138 -0.731 139.245 -0.731 139.34 C -0.731 139.558 -0.736 139.765 -0.739 139.979 C -0.738 140.033 -0.737 140.083 -0.737 140.136 Z  M 147.338 446.106 L 257.45 446.106 L 259.047 269.043 C 207.547 225.043 134.547 177.543 54.514 157.55 C 53.168 157.213 52.42 155.749 52.643 154.38 C 52.643 154.378 52.644 154.376 52.644 154.374 C 53.564 148.802 53.962 142.783 53.856 137.066 C 53.904 131.727 53.517 126.175 52.673 121.002 C 52.651 120.87 52.623 120.758 52.6 120.631 C 52.748 120.515 52.924 120.378 53.127 120.22 C 146.935 82.09 217.54 14.011 257.45 -31.772 L 257.45 -47.219 L -26.897 -47.219 L -26.897 120.829 C -25.013 121.585 -23.119 122.326 -21.214 123.051 C -21.694 126.233 -22.003 129.526 -22.153 132.825 C -22.26 134.474 -22.326 136.298 -22.314 138.298 C -22.308 139.314 -22.282 140.313 -22.24 141.292 C -22.183 145.975 -21.815 150.757 -21.08 155.257 C -20.941 156.111 -20.764 156.86 -20.563 157.541 C -21.418 157.765 -23.584 158.353 -26.897 159.367 L -26.897 326.035 C -11.273 311.924 5.429 307.952 14.387 307.434 C 15.234 307.385 15.854 305.949 14.984 305.463 C 13.897 304.853 11.49 304.521 8.353 304.528 C 2.275 304.493 -6.595 305.645 -14.227 308.422 C -18.486 309.971 -22.291 311.848 -25.789 313.96 C -25.206 311.281 -24.566 308.251 -23.876 304.849 C -10.286 292.636 4.139 289.202 11.911 288.764 C 12.653 288.722 13.198 287.446 12.437 287.012 C 11.469 286.459 9.303 286.158 6.484 286.168 C 1.158 286.126 -6.613 287.135 -13.304 289.589 C -16.321 290.696 -19.079 291.994 -21.646 293.439 C -21.136 290.738 -20.607 287.873 -20.061 284.837 C -8.179 275.378 3.872 272.31 10.731 271.736 C 11.465 271.675 11.976 270.403 11.212 269.996 C 10.341 269.531 8.52 269.292 6.14 269.31 C 0.865 269.275 -7.332 270.452 -14.291 273.196 C -15.693 273.75 -17.037 274.344 -18.329 274.973 C -18.103 273.656 -17.875 272.312 -17.644 270.941 C -17.382 269.383 -17.124 267.823 -16.872 266.264 C -6.389 258.503 3.945 255.594 10.122 254.851 C 10.858 254.763 11.331 253.477 10.552 253.1 C 9.812 252.741 8.413 252.563 6.589 252.575 C 1.397 252.519 -7.536 253.967 -14.963 257.176 C -15.139 257.251 -15.312 257.328 -15.486 257.405 C -15.028 254.373 -14.588 251.355 -14.166 248.365 C -4.817 241.767 4.097 239.462 9.498 238.982 C 10.173 238.923 10.651 237.649 9.953 237.239 C 9.145 236.765 7.439 236.521 5.209 236.542 C 0.498 236.498 -6.755 237.597 -13.043 240.172 C -12.66 237.281 -12.292 234.427 -11.942 231.621 C -3.592 225.463 4.418 222.992 9.393 222.288 C 10.043 222.196 10.45 220.954 9.758 220.598 C 9.125 220.272 7.953 220.115 6.43 220.128 C 2.291 220.068 -4.748 221.274 -11.004 223.907 C -10.649 220.906 -10.314 217.977 -9.999 215.136 C -3.027 210.731 3.422 208.808 7.667 208.181 C 8.317 208.085 8.718 206.841 8.023 206.489 C 7.396 206.172 6.245 206.021 4.748 206.039 C 1.383 205.985 -3.989 206.806 -9.288 208.58 C -8.975 205.619 -8.684 202.78 -8.415 200.081 C -1.87 195.876 4.124 194.569 7.815 194.423 C 8.308 194.403 8.708 193.397 8.217 193.036 C 7.517 192.521 5.802 192.235 3.59 192.253 C 0.442 192.198 -3.86 192.744 -7.837 194.132 C -7.569 191.316 -7.329 188.705 -7.117 186.328 C -1.44 183.159 3.648 182.116 6.922 181.986 C 7.415 181.966 7.815 180.96 7.325 180.599 C 6.621 180.082 4.891 179.796 2.662 179.816 C 0.067 179.77 -3.316 180.133 -6.654 181.039 C -6.369 177.711 -6.158 175.119 -6.016 173.409 C -6.014 173.38 -6.011 173.351 -6.008 173.322 C -1.479 171.252 2.499 170.512 5.223 170.403 C 5.716 170.384 6.116 169.378 5.626 169.017 C 4.914 168.494 3.156 168.207 0.894 168.234 C -0.931 168.2 -3.147 168.369 -5.464 168.787 C -4.421 162.769 -2.485 162.589 1.534 163.806 C 9.956 166.357 17.459 166.958 24.954 164.932 C 32.175 162.982 35.275 161.574 35.856 169.977 C 36.437 178.38 40.446 218.724 47.706 266.74 C 54.965 314.756 61.064 333.061 61.064 333.061 C 61.064 333.061 41.608 325.859 19.538 323.158 C -2.531 320.457 -17.631 325.558 -23.729 328.11 C -25.052 328.663 -26.086 329.096 -26.897 329.435 L -26.897 339.3 C -15.894 334.286 -2.323 331.129 14.129 332.086 C 60.459 334.782 97.337 358.584 110.308 368.057 C 116.626 382.008 135.215 421.912 147.338 446.106 Z " fill="rgb(221,94,94)"/></g><path d=" M 102.047 142.06 L 87.95 142.06 L 104.95 117.06 L 102.047 142.06 Z " fill="rgb(221,94,94)"/><clipPath id="_clipPath_e4qOJ9RgVeeT0NR8G7OnztOMOwv456lF"><path d=" M 0 0 L 204.094 0 L 204.094 362.835 L 0 362.835 L 0 0 Z " fill="rgb(255,255,255)"/></clipPath><g clip-path="url(#_clipPath_e4qOJ9RgVeeT0NR8G7OnztOMOwv456lF)"><path d=" M 125.45 148.06 L 132.298 152.06 L 136.95 150.06 C 136.95 150.06 139.95 141.06 139.95 139.56 L 139.95 127.56 L 139.95 121.06 L 132.298 117.06 L 125.45 120.56 L 125.45 128.56 L 122.95 140.56 L 125.45 148.06 Z " fill="rgb(221,94,94)"/><path d=" M 153.95 139.56 L 169.45 117.06 L 169.45 144.56 L 153.95 139.56 Z " fill="rgb(221,94,94)"/><path d=" M 101.258 139.671 L 101.258 126.156 L 92.167 139.671 L 101.258 139.671 Z  M 101.258 154.291 L 101.258 146.334 L 85.073 146.334 L 85.073 139.698 L 102.229 114.584 L 108.595 114.584 L 108.595 139.671 L 113.505 139.671 L 113.505 146.334 L 108.595 146.334 L 108.595 154.291 L 101.258 154.291 Z " fill="rgb(255,255,255)"/><path d=" M 132.298 119.899 C 131.355 119.899 130.513 120.2 129.773 120.8 C 129.033 121.402 128.46 122.479 128.053 124.033 C 127.517 126.049 127.249 129.443 127.249 134.214 C 127.249 138.986 127.489 142.265 127.97 144.049 C 128.451 145.835 129.056 147.023 129.787 147.615 C 130.518 148.207 131.355 148.503 132.298 148.503 C 133.241 148.503 134.083 148.202 134.822 147.6 C 135.562 147 136.135 145.922 136.543 144.369 C 137.079 142.371 137.347 138.986 137.347 134.214 C 137.347 129.443 137.107 126.165 136.626 124.379 C 136.145 122.595 135.539 121.402 134.809 120.8 C 134.078 120.2 133.241 119.899 132.298 119.899 Z  M 132.298 113.435 C 136.237 113.435 139.317 114.84 141.536 117.652 C 144.181 120.981 145.504 126.502 145.504 134.214 C 145.504 141.909 144.172 147.439 141.508 150.805 C 139.307 153.58 136.237 154.966 132.298 154.966 C 128.34 154.966 125.15 153.445 122.727 150.403 C 120.303 147.36 119.092 141.937 119.092 134.131 C 119.092 126.474 120.424 120.962 123.088 117.596 C 125.288 114.822 128.359 113.435 132.298 113.435 Z " fill="rgb(255,255,255)"/><path d=" M 166.873 139.671 L 166.873 126.156 L 157.783 139.671 L 166.873 139.671 Z  M 166.873 154.291 L 166.873 146.334 L 150.688 146.334 L 150.688 139.698 L 167.844 114.584 L 174.21 114.584 L 174.21 139.671 L 179.12 139.671 L 179.12 146.334 L 174.21 146.334 L 174.21 154.291 L 166.873 154.291 Z " fill="rgb(255,255,255)"/><path d=" M 41.658 24.035 C 42.13 22.541 42.435 23.327 43.3 24.238 C 44.165 25.15 45.646 27.115 46.228 27.992 C 46.809 28.869 47.113 28.734 47.665 28.457 C 48.217 28.181 51.037 26.287 52.254 25.748 C 53.471 25.208 53.987 25.215 53.621 26.779 C 53.255 28.344 52.494 30.779 51.902 32.315 C 51.309 33.852 51.366 33.917 52.694 34.541 C 54.021 35.165 56.953 36.562 57.647 36.993 C 58.341 37.424 58.391 37.487 57.521 38.012 C 56.651 38.537 52.57 39.93 51.679 40.164 C 50.787 40.398 50.893 40.47 51.503 41.58 C 52.114 42.689 53.398 45.32 53.364 46.523 C 53.33 47.726 53.45 47.224 52.466 46.815 C 51.481 46.406 47.721 44.733 46.879 44.572 C 46.037 44.41 46.051 44.297 45.549 45.097 C 45.048 45.897 42.547 49.383 41.996 50.119 C 41.445 50.856 41.169 50.305 40.835 49.286 C 40.501 48.267 40.2 45.586 40.135 44.715 C 40.07 43.845 39.956 43.371 38.746 43.393 C 37.536 43.417 33.637 43.337 32.787 43.231 C 31.938 43.127 31.945 42.61 32.559 41.823 C 33.174 41.037 35.711 38.189 36.425 37.53 C 37.138 36.871 36.728 36.475 36.061 35.818 C 35.395 35.161 33.128 32.581 32.376 31.682 C 31.625 30.785 32.049 30.607 32.97 30.606 C 33.889 30.605 38.256 30.628 38.991 30.719 C 39.728 30.809 39.826 30.477 40.116 29.536 C 40.404 28.594 41.658 24.035 41.658 24.035 Z " fill="rgb(203,254,255)"/><path d=" M 102.412 62.692 C 103.383 62.505 103.039 62.91 102.794 63.664 C 102.549 64.418 101.906 65.831 101.595 66.418 C 101.284 67.004 101.45 67.131 101.769 67.354 C 102.089 67.577 103.988 68.571 104.654 69.083 C 105.319 69.594 105.471 69.882 104.494 70.151 C 103.516 70.42 101.937 70.731 100.907 70.865 C 99.876 71 99.858 71.05 99.912 71.974 C 99.965 72.898 100.074 74.944 100.044 75.459 C 100.014 75.973 99.994 76.02 99.441 75.696 C 98.888 75.372 96.887 73.529 96.488 73.105 C 96.09 72.681 96.082 72.761 95.651 73.434 C 95.219 74.107 94.147 75.611 93.47 75.955 C 92.793 76.298 93.108 76.213 93.038 75.545 C 92.969 74.876 92.764 72.288 92.599 71.772 C 92.435 71.256 92.502 71.23 91.908 71.193 C 91.313 71.156 88.628 70.819 88.053 70.736 C 87.479 70.652 87.702 70.333 88.165 69.84 C 88.63 69.348 90.026 68.375 90.489 68.076 C 90.952 67.778 91.18 67.572 90.803 66.909 C 90.426 66.245 89.296 64.058 89.099 63.556 C 88.901 63.053 89.189 62.902 89.81 63.005 C 90.432 63.109 92.774 63.658 93.355 63.855 C 93.935 64.052 94.031 63.706 94.195 63.138 C 94.358 62.571 95.105 60.537 95.377 59.85 C 95.648 59.163 95.875 59.345 96.152 59.854 C 96.43 60.364 97.733 62.792 97.904 63.227 C 98.075 63.663 98.289 63.617 98.898 63.494 C 99.507 63.371 102.412 62.692 102.412 62.692 Z " fill="rgb(203,254,255)"/><path d=" M 160.413 29.865 C 160.918 30.155 160.608 30.204 160.209 30.445 C 159.808 30.687 158.977 31.069 158.612 31.211 C 158.248 31.352 158.273 31.473 158.33 31.696 C 158.386 31.918 158.85 33.093 158.95 33.578 C 159.049 34.062 159.005 34.25 158.466 33.992 C 157.927 33.735 157.103 33.265 156.592 32.928 C 156.081 32.592 156.052 32.606 155.721 33.039 C 155.389 33.471 154.648 34.426 154.437 34.643 C 154.225 34.861 154.199 34.875 154.076 34.517 C 153.955 34.159 153.773 32.566 153.76 32.224 C 153.745 31.882 153.711 31.915 153.259 32.049 C 152.808 32.181 151.749 32.439 151.316 32.332 C 150.882 32.223 151.055 32.307 151.282 31.982 C 151.508 31.657 152.414 30.425 152.539 30.131 C 152.665 29.838 152.705 29.852 152.455 29.606 C 152.204 29.361 151.136 28.176 150.913 27.918 C 150.688 27.659 150.91 27.602 151.308 27.561 C 151.704 27.521 152.701 27.625 153.023 27.671 C 153.344 27.716 153.525 27.713 153.612 27.271 C 153.701 26.83 154.039 25.42 154.145 25.119 C 154.249 24.82 154.438 24.863 154.675 25.149 C 154.912 25.434 155.745 26.582 155.927 26.893 C 156.11 27.205 156.285 27.087 156.578 26.897 C 156.868 26.708 157.986 26.089 158.372 25.887 C 158.758 25.685 158.788 25.854 158.716 26.188 C 158.642 26.522 158.288 28.106 158.197 28.366 C 158.105 28.627 158.219 28.688 158.538 28.868 C 158.856 29.048 160.413 29.865 160.413 29.865 Z " fill="rgb(203,254,255)"/><path d=" M 104.466 296.103 C 101.313 294.786 103.078 294.276 105.227 292.576 C 107.376 290.875 111.934 288.04 113.952 286.948 C 115.97 285.855 115.737 285.168 115.243 283.916 C 114.749 282.664 111.187 276.166 110.252 273.418 C 109.317 270.671 109.432 269.55 112.759 270.65 C 116.086 271.749 121.228 273.877 124.45 275.464 C 127.672 277.05 127.823 276.939 129.438 274.177 C 131.052 271.415 134.659 265.319 135.73 263.895 C 136.801 262.471 136.949 262.375 137.92 264.368 C 138.89 266.359 141.119 275.497 141.456 277.479 C 141.792 279.46 141.966 279.244 144.497 278.134 C 147.028 277.026 152.993 274.749 155.599 275.056 C 158.206 275.365 157.138 275.006 156.057 277.065 C 154.977 279.124 150.611 286.965 150.096 288.763 C 149.581 290.562 149.337 290.509 150.978 291.754 C 152.619 292.999 159.702 299.111 161.195 300.452 C 162.688 301.791 161.436 302.286 159.158 302.812 C 156.88 303.339 150.996 303.47 149.093 303.441 C 147.19 303.413 146.138 303.567 145.951 306.201 C 145.765 308.833 144.832 317.289 144.438 319.113 C 144.045 320.938 142.924 320.823 141.335 319.334 C 139.747 317.846 134.054 311.781 132.761 310.101 C 131.469 308.422 130.529 309.238 128.971 310.556 C 127.414 311.875 121.367 316.299 119.271 317.756 C 117.174 319.213 116.871 318.257 117.048 316.258 C 117.225 314.259 118.125 304.779 118.466 303.198 C 118.807 301.616 118.103 301.337 116.114 300.526 C 114.125 299.714 104.466 296.103 104.466 296.103 Z " fill="rgb(203,254,255)"/><path d=" M 83.691 191.459 C 83.741 190.335 84.099 190.823 84.867 191.295 C 85.636 191.768 87.027 192.855 87.593 193.355 C 88.159 193.855 88.345 193.706 88.676 193.412 C 89.007 193.118 90.613 191.282 91.357 190.683 C 92.1 190.083 92.46 189.991 92.496 191.144 C 92.532 192.297 92.456 194.127 92.33 195.302 C 92.204 196.478 92.255 196.512 93.292 196.698 C 94.328 196.885 96.62 197.311 97.181 197.48 C 97.742 197.65 97.789 197.686 97.283 198.211 C 96.777 198.735 94.205 200.458 93.63 200.786 C 93.055 201.114 93.142 201.144 93.771 201.8 C 94.4 202.457 95.778 204.043 95.978 204.884 C 96.177 205.725 96.167 205.354 95.409 205.252 C 94.65 205.151 91.733 204.688 91.119 204.732 C 90.505 204.776 90.494 204.695 90.294 205.344 C 90.095 205.991 89.007 208.872 88.761 209.484 C 88.516 210.098 88.222 209.767 87.801 209.122 C 87.381 208.478 86.675 206.674 86.469 206.082 C 86.262 205.49 86.096 205.184 85.261 205.423 C 84.426 205.663 81.707 206.331 81.098 206.416 C 80.49 206.5 80.399 206.141 80.679 205.481 C 80.96 204.822 82.191 202.377 82.564 201.787 C 82.937 201.198 82.578 201 81.994 200.668 C 81.411 200.335 79.359 198.967 78.672 198.483 C 77.984 198 78.246 197.798 78.884 197.627 C 79.522 197.455 82.554 196.661 83.081 196.588 C 83.608 196.515 83.615 196.266 83.641 195.56 C 83.667 194.853 83.691 191.459 83.691 191.459 Z " fill="rgb(203,254,255)"/><path d=" M 204.799 319.828 C 204.542 320.038 204.338 320.324 204.026 320.466 C 87.95 373.115 87.95 310.119 0.705 325.542 L 0.705 363.501 L 204.799 363.501 L 204.799 319.828 Z " fill="rgb(203,254,255)"/></g></g></svg>